<?xml version="1.0" encoding="iso-8859-1"?>
<!-- Generator: Adobe Illustrator 19.0.0, SVG Export Plug-In . SVG Version: 6.00 Build 0)  -->
<svg version="1.1" id="Capa_1" xmlns="http://www.w3.org/2000/svg" xmlns:xlink="http://www.w3.org/1999/xlink" x="0px" y="0px"
	 viewBox="0 0 491.52 491.52" style="enable-background:new 0 0 491.52 491.52;" xml:space="preserve">
<circle style="fill:#334D5C;" cx="245.76" cy="245.76" r="245.76"/>
<path style="opacity:0.1;enable-background:new    ;" d="M354.253,104.96c-4.045,0-7.936,2.662-11.52,7.526
	c-20.531,14.285-79.872,53.197-136.755,67.533c-1.229-1.536-2.969-2.509-5.069-2.509h-75.11c-3.687,0-6.656,2.919-6.656,6.605v8.806
	h-9.114c-2.816,0-5.069,2.253-5.069,5.018v41.524c0,1.178,0.41,2.253,1.075,3.072l13.926,13.926
	c0.256,0.512,0.563,0.973,0.922,1.331h-0.102l24.269,24.217l17.971,100.557c0.409,1.639,1.485,2.919,2.918,3.533l104.208,104.209
	C394.426,478.063,491.52,373.257,491.52,245.76c0-2.766-0.118-5.503-0.208-8.247L362.906,109.107
	C360.141,106.394,357.274,104.96,354.253,104.96z"/>
<path style="fill:#E1E6E9;" d="M168.691,185.353v33.355v33.354c77.709,3.023,181.531,78.23,181.531,78.23V107.123
	C350.222,107.123,246.885,184.183,168.691,185.353z"/>
<ellipse style="fill:#E56353;" cx="354.253" cy="218.706" rx="32.292" ry="113.766"/>
<path style="fill:#D15241;" d="M354.268,323.419c-7.794-2.302-22.728-40.926-22.728-104.696c0-64.12,15.097-102.817,22.854-104.727
	c7.504,1.909,22.602,40.607,22.602,104.727C376.996,282.493,362.062,321.117,354.268,323.419z"/>
<path style="fill:#FFFFFF;" d="M379.699,218.716c0,5.651-1.1,11.065-3.06,16.051c-6.456,16.384-22.522,28.019-41.316,28.019
	c-0.382,0-0.765-0.048-1.195-0.048c-1.577-12.917-2.581-27.591-2.581-44.022c0-16.431,1.004-31.105,2.581-44.022
	c0.431,0,0.814-0.048,1.195-0.048c18.794,0,34.86,11.635,41.316,28.019C378.599,207.651,379.699,213.065,379.699,218.716z"/>
<path style="fill:#E1E6E9;" d="M124.515,192.927h-14.497c-2.793,0-5.057,2.249-5.057,5.022v41.516c0,2.774,2.265,5.022,5.057,5.022
	h14.497c2.793,0,5.056-2.249,5.056-5.022V197.95C129.571,195.176,127.307,192.927,124.515,192.927z"/>
<path style="fill:#64798A;" d="M211.771,380.366l-22.527-126.369h-49.222L163.04,382.57c0.521,2.331,2.602,3.99,5.006,3.99h38.718
	C210.044,386.56,212.481,383.546,211.771,380.366z"/>
<path style="fill:#E56353;" d="M200.898,177.492h-75.099c-3.672,0-6.648,2.956-6.648,6.602v69.229c0,3.646,2.976,6.602,6.648,6.602
	h75.099c3.672,0,6.647-2.956,6.647-6.602v-69.229C207.545,180.447,204.57,177.492,200.898,177.492z"/>
<g>
</g>
<g>
</g>
<g>
</g>
<g>
</g>
<g>
</g>
<g>
</g>
<g>
</g>
<g>
</g>
<g>
</g>
<g>
</g>
<g>
</g>
<g>
</g>
<g>
</g>
<g>
</g>
<g>
</g>
</svg>
